<?xml version="1.0"?>
    
<!--********* Copyright (c) 2024 Pareto Softare, LLC DBA Simplemaps.com ***************************************
************* Free for Commercial Use, full terms at  https://simplemaps.com/resources/svg-license ************
************* Attribution is appreciated! https://simplemaps.com *******************************************-->

<svg baseprofile="tiny" fill="#6f9c76" height="1353" stroke="#ffffff" stroke-linecap="round" stroke-linejoin="round" stroke-width=".5" version="1.2" viewbox="0 0 1000 1353" width="1000" xmlns="http://www.w3.org/2000/svg">
 <g id="features">
  <path d="M117.4 1277.1l-0.4 0.7-0.5 2 0.4 0.9 0.3 1 0.2 1.1 0 1.1-0.6-0.3-0.4-0.6-0.6-1.5-0.6-0.3-2.4 0.7 0-0.7 3.4-3.6 1.2-0.5z m51.6-74.6l0.8-1.4 1.6-1 1.5-0.2 0.7 1.3-0.9 0.8-1.6 1.2-1.5 0.5-0.6-1.2z m19.2-43.5l-0.7 0.8-1 0.3-0.9-0.3-0.4-1.3 0.3-1.3 0.7-0.6 1-0.2 0.9 0.3 0.8 0.7-0.7 1.6z m58.3-5l1 2.2-0.8 2-1.4 1.6-0.6 0.9 0.3-1-0.4-0.9-0.8-0.9-0.5-1.2 1-0.1 1-0.5 0.8-0.8 0.4-1.3z m-25.8 30.5l2.9 2.1 0.9 0.9 0.1 0.6-0.5 0.3-0.7 0.1-0.5 0-0.3-0.3-0.5-1.3-0.5-0.4-1.5-0.1-0.4 0.7 0.5 2.4-0.8 0.5-2.3-1 0.8 1.5-4.9 0-4.1 0.7-1.7 0.8-4.1 3.9-1.2 1.6-0.9 0.7-1.2 0-1.1-0.6-0.9-0.8-1-0.5-2.4 0.4-0.9-0.2-0.6-1.1-0.4-1.4-0.6-0.7-1.3 1.2-1.2 0.3-0.5 0.3 0 0.4-0.4 2.4-1.1-0.8-3.3 2.7-2 0.7 1.2 1.3 2.1-0.4 4-1.6-0.8 1.9-0.7 1.3-2.1 2.2 0-2.4-0.8 0.1-1.2 1.2-1 1.4-1.2 0.7-2.2 0.5-2.3 0.2-1.3-0.5-0.4-1.8 0.5-2.5 0.8-2.4 0.7-1.5 0.7-0.6 1.3-0.2 1.3-1.1 2.3-1.2-1.1-0.8 0-0.9 0.4-1 0.4-1.2-0.1-1.5-0.3-1.1 0-1.1 0.5-1.3 0.7-1 0.7-0.6 1.6-1.1 1.1-0.4 0.8 0.3 0.8 0.4 0.9 0.1 1.1-1.3-0.2-2.4-0.5-2.5 0.3-2.1 0.8-0.5 1.9 0 0.9-0.8 1.1-1.9 0.4-1.1 0.1-1.3-0.3-2.2-0.9-2.1-2.2-3.4-0.4-1 0.3-0.9 0.5-0.7 0.2-0.7 0-0.6-0.1-0.5-0.2-0.4-0.3-0.5-0.3-0.7 0.1-0.5 0.3-0.5 0.1-0.5 0.4-2.8 0.9-1.4 1.5-0.4 2-0.1 1.8 0.6 1 0.2 0.8-0.5 1-0.9 0.7-0.2 3.1 1.6 1.3 1.1 1.1 1.3 5.9 8.4 1 0.9 1.1 0.8 0.9 0.9 0.4 1.3 0.8 0.3 1.5 0.9 0.8 1.2-1.3 1.3 1.4 0.7 0 0.6-1.7 0.6-6-0.6 0.5-1.3-3.7-0.2-1.3 0.7 0.7 1.8-0.2 1.1-3.2 4.6 1.6-0.2 2.3-3 1.5-0.8 0.7 0.3 1.8 1.4 1.7 0.4 2.6 1.2-0.3 0.7-0.2 0.5-0.3 0.4-0.6 0.3 0 0.7 0.8 0 3.6-1.3 0.8-0.1 0.9-0.5 0.5-0.1 0.2 0.4 0.2 0.7 0.5 0.7 0.6 0.5 0.5 0.3-0.3 1-0.4 2.4-0.2 0.7-0.7 0.4-0.8-0.1-0.8-0.2-0.8-0.1 0 0.6z m-98.4-137l1.2 1 0.9 1.8 0.6 2.2 0.1 2-0.2 2.1-0.8 1.5-1.1 0.8-1.5 0.2-0.1-0.5-0.5-0.9-0.6-0.5-0.4 1.7-0.6 0.4-0.6 0-0.5-0.2-0.4-1-0.3-1.8-0.2-2 0.1-1-1-1.8-1.1 0.1-4.1 4.9-1.1 0.8-1.4 0.5 0.4-1.3 0.6-1.7 0.8-1.5 0.8-0.7 0.1-0.3 0.8-1.4 0.5-1.4 0.8-0.2 1.7 0 5.3-1.8 1.2-0.1 0.6 0.1z m17.3-42.6l0.6 3.3 1 3.2 2.4 6.3-2.2 0.5-0.9-0.3-1.1-1.2-1.1-0.7-1.4-0.5-1.3-0.6-0.6-1.3-0.7-1.2-0.1-0.8 0.6-0.3-0.1-0.4 0.4-0.9 4-6.4 0 0.4 0.2 0.3 0.1 0.2 0.2 0.4z m489.6-367.7l1.1 0.1 0.2 0.7-0.1 1 0.2 1.2-0.5 1.1-0.4 2.6-0.5 1.1-0.9 0.6-1.2 0.1-1.2-0.1-1.2 0-0.9 0.5-1.7 1.5-0.6 0.4-1 0.2-3.4-0.2 0.3-0.3 0.8-0.7 0.2-0.2 0.7 0 1.6 0.1 0.6-0.4 3.4-3.9 1.1 1.2 1.5-0.6 1.1-1.4-0.1-1.6-0.8 0.4-0.8-0.1-0.7-0.6-0.4-0.9 1.2-0.1 0.8-0.6 0.8-0.7 0.8-0.4z m-39.4-17.5l0.8-0.4 0.4-0.7 0.1-0.9-0.4-0.9-0.7 0.8-0.2 0.3-0.4-1-0.1-1.1 0.1-1.1 0.4-0.9 1 0.9 0.8 1.1 0.9 0.7 1.4 0.3 0-0.6-0.8-0.7-0.8-0.9-0.5-1.1-0.2-1.5 0.2-1.3 0.8-3.3 0.4-0.7 0.3 0.1 0.1 0.7 0.2 0.7 0.7 0.2 0.3-1.2 0.3-0.8 0.6-0.4 0.9 0.5 0.1 1.3-0.2 1.6 0.3 1.4 0.5-0.8 2.1-0.7 1-0.9-2.2 0 1.5-1.3 0.6-0.7 0.6-1 0.7-2.5 0.3-0.5 0.3 1.3 0 1.2-0.2 1.2-0.7 2.3 0.4 0.9 0.2 0.6-0.3 0.2-0.4 0.3-1 1.1-0.3 0.5-0.2 0.9-0.2 2.3-0.4 1-0.3 0.1-1.3-0.1-0.4 0.2-0.8 1.1-0.4 0.4-1.6 0.6-0.5 0.3-0.2 0.6-0.2 0.6-0.2 0.4-0.9 0.6-0.9 0.4-1 0.1-0.8-0.5 0.2-0.3 0.1-0.3 0-0.3 0.1-0.4z m-68.4 211.4l0.4 1.2-0.4 2.2-0.3 2.3-0.1 4.8-0.5 0.5-0.4 1.3 0.2 1.9 1.2 5.7 1.9 5.4-0.2 1.5-0.8-1.1-0.8-0.1-0.3 0.6 0.5 1.2 1 0.8 4.1 1.1-1.9 0.9-4.4 0.3-1.9 0.6-1.8 1.7 0.8 0.7 1.8 0.3 1.5 0.4 1.3-1.8 2.5-0.6 2.4 0 1 0.2 0.3 1.4 0.6 1.3 0.7 0.8 0.2-0.4 0.4-2.3 0.5-2.3 1.8 1.1 0.4 0.8 0.1 1.5-0.2 2.5 0.2 0.6 0.9-0.3 0.6-0.7 0.5-1.1 0.5-0.9 0.9-0.4 1 0.1 1 0.4 0.7 0.8 0.3 1.2 1.9-2.1 0.8-0.4 0.2 1.6 0.8 0.9 0.9 0.7 0.8 1.1 0 0.7-0.1 0.8-0.3 0.6-0.1 0.5 0.2 0.5 0.5 1 0.2 0.4 0.3 2.5-0.2 2.7-0.6 2.5-0.8 2.3-0.8-1.2-1.6 2.1-1.2-0.3-0.5 2 0 0.6-0.5-0.8-0.6-0.1-0.6 0.3-0.5 0.6-0.3-1.2-0.9-2-0.2-1.2 0-1.4 0.2-0.8-0.1-0.7-0.8-1.2-0.4-1.2 0.2-1.4-0.1-1.1-0.8-0.4-1.1 0.4-0.4 0.9 0.2 1.1 0.8 0.8-0.9 2.4-0.1 2.5 0.7 2.5 2.1 3.3-0.2 0.2-1.6-0.3-4.3 0-0.9-0.5-1.5-1.9-1.5 0.5-0.8-0.6-1.4-1.9-2.6-2.7 0-1.2 1.2-1.7-1.1 0.1-1.8 0.9-5.4 0.7-1.9 1-3.8 0.4-5.8 2.1-2.7 0.4-0.6-0.3 0.3-1 0.6-0.7 0.9-0.4 1.7-0.2 10-3.5 1-0.1 1-0.3-0.5-0.7-1.9-1.2-0.8-0.2-2.1 0.3-1.1-0.5-0.5-0.5-0.8-1.3-0.5-0.6-1.8-0.9-1.7 0.3-1.7 0.7-1.9 0.4-1.1 1-0.6 2.3-0.3 2.7 0 2.2 0.2 1.4 0.1 0.5-0.2 0.5-0.8 1.1-0.7 0.3-5.5 0.9-0.8-0.2-1.3 0.5-1.2 1.4-3 1-1.4 1.2-6.9 3.3-12.7 9.4-2 0.3-1.1-0.2-1 0.1-0.9 0.6-4.9 3.4-2.4 0.6-1 0.4-0.8 0.7-0.7 0.9-0.8 0.7-1.8 0.5-1.8 1.3-0.7 0.3-1.1 0.4-1.2 1.4-0.7 0.7-0.4 0.8-1.7 0.7-0.9 0.6-4 4.4-1.6 0.9-1.3-0.5-1 0.7-0.8 0.6-0.5 1-0.2 0.9-3.6 6.6-0.3 1.1 0 5.3-0.3 1.7-0.9 1.4-1.9 2.3-0.2 0.8 0 1.1-0.2 0.9-0.8 0.4-0.5 0.1-1.9 1.2 1.4 1.8 0.4 3.2 0 7 0.7 4.5 0.1 1.6-0.3 1.7-0.8 0.8-0.9 0.5-0.6 1.1 1.8 0.3 0.7 2.3-0.1 3-0.5 5.5-0.7 1.9-0.8 1.4-0.5 1.2-0.7 1.4-0.2 1.4-4.5 8.5-7.3 7.6-3.6 7.8-1.6 6.7-0.9 2-0.8 2.3 1 1.2 1.1 1.1-0.1 2.2-2.5 2.9-0.6 1.3 0 1 0.2 1 0.2 1.2-0.9 1.7-1.9 1.3-1.3 1.5 0.5 2.3-0.8 1.1-0.8 0.6-0.9-0.1-1.2-0.9 0.1 1 0.2 1 0.6 1.8-1.1 1-0.8 0.4-2.4-0.1-1.3 0.5 0 1 1 0.9 1.5 0.2-1.6 3.5-0.5 0.5-0.7 0.2-0.9 0.5-1.3 1.2-0.6 0.2-0.4-0.1-0.3 0-0.1 0.8 0 0.9 0.1 0.5 0.2 0.2 0.6 0.1 1 0.3 0.9 0.6 0.9 0.2 0.8-1.1 1.2 1 1.8 0.9 1.3 1 0.1 1.3-1.2 0.9-3.2 0.6-1.4 0.8-1.2 2-0.5 0.6-0.6 0.2-0.7 0.2-0.7 0.3-0.8 2.4-2.5 1.7-0.6 1.6 1.2-0.6 2.4-0.7 2-1.7 3-1.2 0.9-0.9 1-2.2 0.8-1.1 0.9-0.6 0.8-0.2 0.8-0.5 0.7-1.3 0.7 1.2 0.2 1.5-0.2 5.2-0.6 1.2-0.9 0.5-1.5 0.1-1.3-0.1-0.3 0.2-0.7 0.5-0.3 0.6 0 0.7-0.1 0.5-13.7 1.5-5.7 1.9-4.9 3.6-3.8 5.6-1 2.2-0.3 1.1-0.2 2.9-0.6 1.8-0.1 0.8-0.5 2.1-1.2 1.8-1.5 1.4-1.4 0.9-3.5 1.5-1.6 1.1-1.4 1.7-1.2 1.8-1.2 1.4-9.2 6.6-2.3 3.2-0.9 5 0.2 2.6-0.3 1-1.9 0.7-1.5 1.3-0.6 0.3-1.1-0.2-2.2-0.9-1.1-0.2-1.2 0.2-1.9 0.8-1.1 0.3 1.1 0.5 5.3 0.2-1.3 3.4-2.1 1.4-2.4 0.9-2.2 1.9-0.9-0.1-1.7-0.7-1.9-0.5-1.3 0.7-0.9 0.8-3.5 2.1 0.4 0.4 0.7 1.2 0.3 0.4-1.8 0.6-2.2-0.7-2-0.2-1.2 2.3-1.4-1.1-0.4-0.2-2.3-0.4-1.2 0.1-0.9 0.6-1.3 1.5-0.8 0.6-0.8 0.2-2.3 0.3-0.9-0.1-0.9-0.9 0.3-1.9-0.2-1.1-0.1-0.1-0.8-0.2-0.6 0.7 0 2.1-0.8 0.7-0.1 0.5-0.2 0.4-0.4 0.3-2 0-1.2-0.4-0.7-0.9-0.4-0.9-0.5-0.5-0.8 0.1 0 0.8 0.2 1.2-0.3 1.2-1.8 1.1-2.2-0.6-2.3-1.2-1.8-0.6-2.2 0.1-1.2-0.2-0.7-1.2-1.7-6-0.1-0.9-0.4-1.1-0.9 0-1.9 0.7-6.8 1.3-2.3 0 0.6-1 0.8-0.3 0.9-0.2 0.9-0.5-1.3-0.8-1.7-0.4-3.3-0.1 0.5 1.4 0.9 0.8 0.4 0.8-0.9 1 0.3 0.3 0.4 0.7 0.2 0.3-3.5 1.2-11.4-1.2 0.8-1.7 0.4-0.5 0.5-0.4 1-0.3 2.3 0 0.8 0.3 0.7 1.1 1.9 0.4 1.2-0.6-1.5-1.6-1.9-0.8-5.8 0.1-2.6-1.7-1.4-0.3-0.5 1.7 0.4 2 2 2.6 0.8 1.7-1.8-0.3-2.4-3-1.5-0.7-0.3-0.4-0.1-0.9-0.4-0.9-1.7-0.6-0.5-0.5-0.3-0.9-0.1-1.1 2-0.6 0.7 0 0.7 0.2 0.1 0.3 0 0.4 0.3 0.7 0.5-0.6 3.4-3 0.6-2.5-0.4-3.1-1.3-2.3-1.6 0 0.5 2.4-0.7 2.3-1.2 1.4-1.4-0.2-0.8-1.3-1.3-4-3.6-6.6-1-1.2-1.9-0.5-6.5 1.2-0.9 0.5-0.1 1.1 0.2 1.1-0.1 0.5-1-0.3-1.1-0.5-1.2-0.4-0.8 0.3-2-0.3-1.3 0-0.5 0.9-0.4 1.1-0.8 0.2-0.8-0.1-0.7-0.3-0.9-0.5-0.5-0.1-0.5 0.3-1 0.9-0.3 0.2-0.8-0.4-0.6-0.6-0.7-1-0.7-0.3-0.6-0.9-0.9-1.7-0.7-0.7-1.5-0.9-0.8-0.7 0.9-0.5 0.9-0.4 0.8-0.6 0.6-1.2-3.3-4.5-1.7-2.7 0-2-1-0.8-2.7-0.3-1.3-0.4-3.1-2.1-1-0.3-7.6-0.8-0.5 0.2-0.4 0.7-0.1 1.5-0.2 0.8-0.8 1.5-0.2 1.3-0.2 1.2-0.4 1.5-0.8 1.1-1 0.3-2.3-0.1-1 0.3-2 1.3-1 0.4-1.3-0.2-2.8-1-1.4-0.1-1.1 0.3-0.5 0.3-0.4 0.4-0.5 0.2-0.3-0.3-0.3-0.6-0.3-0.3-0.7-0.2-4.3-2-1.1 0-1.1 0.2-1.2 0-4.5-1.3-9 0.2-4.5-0.7-3.7-2.8-2-2.7-0.3-0.9 0.4-0.6 1.9-0.9 0.7-0.5 2.5-2.9 2.3-3.2 1.8-4.5 1.1-1.9 1.3-0.8 2-0.5 3-2.5 1.6-1 0-0.6-1.4 0.2-4 2.4-2.9 1.1-1.6 0.9-0.9 1.2-0.3 1.1 0.2 0.7 0.2 0.6-0.1 0.9-0.3 0.2-2.1 2.3-0.1 0.4-0.2-0.1-0.5-0.8 0-0.5 0.3-0.7 0-0.8-0.8-0.7-0.8 3-2.1 1.2-4.8 1.1 0-1.7 0.2-1.5 0.6-0.7 1 0.6 0.3-3 0.7-2.1 1.3-1.5 1.8-1.2 4-0.9 1.7-0.9 1.1-2.1-2.2 1.1-2.3 0.8-1-0.1-1.2-0.4-1-0.5-0.2-0.6 3.6-4.5 0.6-1 0.1-0.7-0.7-0.7-0.7 0.1-0.7 0.6-0.7 0.7-0.2 0.4-0.3 0.6-0.2 0.7-0.1 0.5-1.2 0.9-0.4 0.4-1.8 3-0.3 0.9-0.9 1.1-6.3 1.9-0.9 0.5-1.6 1.7-0.5 0.4-0.4-0.5-0.6-1.1-0.3-1.2 0-0.8 0.2-1.1 0-1.2-0.4-1.9 0-8.6 0.5-2.2 1-0.9 4.3-0.6 4.6 0-0.5 0.6 0.5 0.7 1.6-1.4 2-0.6 4.1 0 1.7-0.3 3.5-1.3 1.8-0.3 2 0.3 0.9 0 0.7-0.7 0.6-0.7 0.6-0.6 1.3-1 3.2-1.4 1.4-1.1 0.8-2-2.8 1.1-1 0.2-4.7-0.6-6.2 1.8-1.6-0.5 1.3-2.8 0.8-1 1.1-0.8 3.5-1 1.1-0.9-6.4 0.9-1.1-0.3-0.5-2.2 0-2.1 0.8-1.6 1.5-0.6 1.8-0.4 3.3-1.8 1.9-0.3 3.5 1.2 1.8 0.1 1.5-1.3-2.3 0-1-0.3-0.8-1.1 4.3-1.3 1.9-1.5 0.6-2.4-8.8 4.7-5.4 1.1-3.7 2.1-0.7 0.1-1.4 0.4-0.8 0.1-1.2-0.2-0.5-0.3-0.8-1.8 0-1.4 2.5-5.4 1.1-5.6 0.7-1.5 3-1.6 3.2 1.4 3.2 2.1 2.8 0.7-0.7-2.3-1.1-2.3-1-0.8-0.8 2.2-1.2-1-2.6-1.4-1.2-0.8-0.8-1.1-0.3-1.1 0.4-1.1 0.9-1.6 2.3-2.4 1.4-1.1 0.7 0.3 0.5 1.6 1.2 1.2 2.8 1.3-0.6 0.5-0.6 0.6-0.4 0.7-0.2 0.9 2.1-0.3 1.8-0.9 1.8-0.1 1.9 1.9 0.5 0.9 0.3 0.8-0.2 0.9-0.6 1.3-1.7 1.3-0.7 0.9 0.6 0.4 2.2-0.1 0.8-0.5 0.9-1 0.4-1.3 0.3-1.2 0.5-0.5 1.8 1.7 0.8 0.5 0.7 0.8 0.4 2.2 1.2 3.2 0.3-0.3 0.2-0.3 0.5 0.4 0.8 0.4 0.5 0.5-0.4-3.1-3.4-4.5-6.7-6.7 1-1.3 1.1-0.6 6.7-2 1.2 0.1 0.7 0.7 1.1 2.3 1 0.8 1.2 0.5 1.4 0 1.2-0.5 0.7-1.2-1.1-0.4-2.3 0.1-0.9-0.6-0.7-1-0.2-0.5 0.2-1.8 0.3-1 0.6-0.4 0-0.1-2.5 0-2.5 1.2-1.7 0.5-5.4 0.5-1.1-0.7-0.1-1.2-0.6-1.9-0.4-1.8-1.2-1.1-0.3-1-0.2-4.2 0.5-1.6 1.4-1 2 0.1 1.6 1.1 2.6 3.6 0.7 0.7 1.1 0.4 1.1 0 0.5-0.7-0.4-0.6-2.4-2-2.4-3.2-1.4-1.2-1.6-0.1 2.6-4.3 1.6-1.6 1.5 0.4 2.5 4.2 0.1 1.4-0.1 1.2 0.1 1.1 0.8 0.8 0.3-1.3-0.2-1.9 0.3-0.7 1-0.5 4 0.5-1-1.2-3.7-1.4-1.4-0.9-1.1-1.5-0.8-1.6-0.1-1.5 0.9-1.5 1.6-0.6 1.7 0.5 1.7 0.9 1.8 0.5 1.4 0.7 1.6 1.4 1.5 0.9 0.9-1.1-1.3-0.3-7.9-4.7-0.8-0.8 0.3-1.3 1.1-1.3 3.3-2.9 1.1-0.5 1.3-0.3 1.5-0.1-0.3-0.4-0.7-1-0.3-0.5 5.1-3 2.1-0.2 0.9 2.9 0.3 0.4 0.4 0.6 0.5 0.6 0.2 0.9-0.2 0.9-0.6 1.8-0.1 0.9 0.5 1.3 0.8 0.9 0.5 1.2-0.5 1.7 2.5 0.3 1.2-0.2-0.3-1-0.2-0.5-0.3-0.7-0.1-0.7 0-0.7-0.2-0.6-1.4-1.3-0.2-1 0.2-1.3 0-1.5-0.5-1.4-0.5-0.9-0.9-3-0.2-1.2 0.8-3.2 2-2 2.4-0.4 2.1 2.1 0.4 1.2-0.2 0.7-0.5 0.6-0.6 1.4-0.3 1.7 0.2 1.4 0.6 1 1.2 1 0.1-2.1 0.6-1.4 0.7-1.3 0.5-1.6-0.1-1.9-1.8-1.9-0.4-1.7-0.7-1.2-0.2-0.7 1.3-0.6 0.7-0.7 0.7-0.4 0.7 0.5 1.3 1.8 1 1.1 1.3 0.7 1.7 0.5-1.1-0.6-2.5-3.2-1.7-1.5-0.3-1 0.5-1.3 1.1-0.9 3.5-1 0.4-0.6 0.6-1.3 0.3-0.6 0.5-0.3 1.1-0.3 0.5-0.4 1.9-2.1 1.9-0.8 2 0.4 2.9 2.7 2.2 1.3 0.9 1 2 4.1 0.5-1 0.1-1.4-0.1-1.5-0.5-1.1-0.4-0.4-1.4-0.9-1.8-1.9-0.4-0.3-0.3-0.1-0.4-0.2-0.3-0.7-0.1-0.7 0.1-2.5-0.4-2.6-0.4-1.4-0.5-1.1 1.5-2.3 5.5-6.2 1.9-1.8 2.4-1.6 1.7-2.1-0.4-3.1 6 0 0.6-0.3 0.8-1.6 0-1.4-0.2-0.3-0.6-0.8-1.6-0.7 0-0.6 3.1-1.1 1.2-0.8 2.4-2.8 4.2-2.8 2.6-2.6 2.1-2.8 0.1-0.6 0.1-0.9 0.2-1.2 0.5-1.1 0.7-0.7 0.7-0.7 0.8-0.5 0.8-0.3-0.5-0.2-1.3-1.1 1.3-0.7 1.3-0.3 4.1-0.3 2.4-0.6 2.3-1.1 1.3-1 0.6-0.7 0.9-0.5 1.7 0.2 0.6-0.3 1.7-1.6 1.1 0.7 1 1.6 1.4 1.5 3.1 0.4 3.8-1.2 3.6-2.2 4-4 3-2.1 1.3-1.3 1.2-0.9 4.2-2.3 1-1 0.4-0.8 0-0.9 0.3-0.7 0.5-0.5 1.8-1.2 0.6-0.2 1.3-0.7 2.5-3 1.2-0.7 1.3-0.5 4.8-3.3 3.3-1.1 1.8-1 0.8-1.3 0.3-0.7 0.7-0.7 0.8-0.6 0.7-0.2 1.7-0.2 0.6 0.1 0.6 0.1 0.6-0.1 0.7-0.6 1-0.9 2.7-0.8 2.2-1.8 2.7 0.6 1.4-0.1 3.5-2.8 1.3-0.3 1.1-0.8 2.2-3.4 1-1.2 0.4-1 0-1.1 1.4-1.6 1.7-0.3 0.7-0.9 0.1-1.2 0.4-2 1.4-1.7 1.4-1.2 8.9-4.4 0.8-1.4 0.6-2.4 1.4-0.5 1-0.9 0.6-1.5 0.5-1.3 0.7-0.5 1.6-0.7 1.6-1.3 0.9-0.4 1.1-0.2 0.8 0.2 1.4 0.9 0.7 0.2 4.3-6.9-2.1-0.4-1.6 1.9-1.5 2.4-1.6 1.1 1.3-4 2.2-2.6 1.7-1.3 0.7-1.4 0-0.7 4.9-0.3 1.4-0.7 0.5-0.6-0.5-0.8 1.2-1 0.9-1.3 1-0.8 1.5 0.7 0.2-1.6 0.7-0.3 0.4-0.7 2.7-1.6 5.9-2.2 2.5-2 2.1-0.3 1.1-0.1 0.7-0.1 0.5-0.7 0.9-1 0.7-0.6 2.4-1.2 1.2-1.4 2.4-3.5 1.2-0.7 1.1-1 5.7-9.8 0.8-0.9 0.6-0.3 1.4-0.5 1.2-0.9 0.5-1.1 1-1.7 0.6-0.8 0.7-0.3 1-0.7 1.1-1.7 1.7-3.1 1.2-0.8 4.7-9.7 1.4-1.6 0.7-1.4 0.2-2.8 0.4-2.1 3.2-5 1.4-4 1.8-13.2 1.2-3.3 0.2-2 0.7-2.1 0.4-0.8 2.2-2.8 1-1.5 0.6-2.1 1.2-5.5 0.9-1.8 0.6-2.9 1.4-3.4-0.5-1-0.4 0.7-0.3-0.7-0.1-0.5-0.1-4.1 1-0.8 4 0.6 4.6-0.7 1.2 0.1 0.5 0 3.3-1.4 6.2-4.1 1.7-1.9 0.6-0.5 1-0.2 0.9 0.1 0.6-0.2 0.5-2 0.5-0.6 0.6-0.4 0.7-0.7 0.9-1.4 2.5-5.6 0.3-0.4 0.3-0.1 0.2-0.3 0.1-1.8 0.1-0.2 0.2-0.2 0.4-0.3 0.5-0.8 0.3-0.8 0.3-1 0-1 0.8-1.3 1.7-1.5 2-1.2 1.3-0.6-0.2-0.8-0.1-0.8 0.2-0.9 0.9-1.7 0.1-1 0-1.9 0.3-2.1 0.3-0.9 0.6 0.3 0.3-0.2 0.6-0.4 0.8-0.3 0.8-0.1-1.3-2.4-0.4-1.1-0.6-9.7 0.2-1.1 0.6-2 0.1-0.8-0.4-4.6 0-9.5-0.4-2.7 0-1.5 0.6-0.7 0.8-0.1 0.6-0.2 0.5-0.5 0.8-1.8 1.6-2.1 0.2-0.5 0.2-0.9 0.1-0.4 0.4-0.4 0.5-0.1 0.4 0 0.5-0.2 0.2-0.4 0.2-0.5 0.3-0.6 0.4-0.2 0.1 0 0.9 0 0.5 0 0.9-0.9 1.8-1.2 0.8-0.3 0.3-0.3 3.4-2.7 6.6-8.2 2.9-2.8 2.4-1-1 2.9-0.1 1 0.9 0.3 0.3-0.4 0.4-0.8 0.5-0.6 1.1 0.6 0.6-0.3 0.5-0.4 0.5-0.4-0.3-1.3 2-0.9 0.1-0.8-0.8-0.9-0.2-0.3-0.9 0.8-0.9 0.6-1 0.1-0.8-0.3 2.6-3.3 3-1.5 13.1-0.7 4.2 0.6 4 1.1 2.2 0.2-1.6 0.6-14.2-1.1-1.1 0.2-0.7 0.9-0.6 1.8-0.7 3.4-0.6 1.7-1 0.8 0.6 1.9-0.3 0.6-1 0.1-1.1-0.1 0.9 2.3 0.4 0.3 1.1 0.4 0.3 0.4 0 1.5-0.8 2.6 0.4 1.4 0.4-0.4 1.4-0.8 0.9 2.5 2.3 2.3 5.7 4.6 0.8 0.3 0.9-0.4 1.6-1.2 0.3-0.2 0.9-0.1 0.2-0.2-0.1-1.2 0.1-0.4 1.1-1 0.5 0 0.7 1 0.8-1.3 0.9-0.8 1 0.1 0.9 1.3 0.3 1.1 0.1 0.8-0.4 1.8 0.4 0.8-0.1 0.7-0.8 0.9 1.1 0.2 1-0.1 0.8 0.3 0.8 1.3-0.2 0.5-0.7 3.8 0.2 1.6 0.2 0.8-0.1 0.6-0.8 1.2-1.5 1.6-1.6 1.3 0.6 0.4 0.5 0.2 0.5-0.1 0.6-0.5 0.8 4.4 0.1 1.4 0.4 1.3 0.7 1.1 0.5 1.2-0.2 1.5-0.3-0.9-0.4-0.6-0.5-0.6-0.6-0.3-0.5 3.1 0.2 0.8 1.1 1.1 0.3 0.6 0.2 1 0.5 0 0.7-1.1 0.5 1.1 0.6 3.6 0.8 2.4 0.1 0.7-0.4 0.5-1.1 0.6-0.3 0.6 0.5 1.3 1.1 0.8 1.5 0.3 3.1 0 1.4-0.2 1.2-0.7 2.5-2.1 2.3-1.4 1.1-1.3 2.5-3.6 4.1-4.1 1.7-0.7 0.7-1.2 0.7-0.3 0.4 0.3 0.1 0.6-0.2 0.8-0.3 0.7 2.3-1 1.1-0.8 0.9-0.9 1.1-2.1 0.5-0.6 0.6-0.1 0.6 0.4 0.5 0 0.6-0.9-0.7-1 0.6-1.2 1.2-1 0.9-0.5 1.2 0.5 1 1.1 0.7 1.6 0.1 1.7 0.4 0 0.4-0.9 0.3-0.2 0.3 0.2 0.4 0.9 0.9-0.6-0.9-2.1 0.9-1 1.8-0.6 1.6-0.8 0.5-1-0.1-0.9-0.5-0.6-0.8-0.3-2.6 1.8-0.4-0.2 0-1.2 0.1-0.5 1-1.4 0.6-0.5 1.5-0.7 0.7-0.5 0.7-0.4 3.3-0.5 0.4-0.4 1.5-2.3 1.6-1.1-0.3 4 1.6 0.4 0.3-0.4 2-2 0.1-0.5 0.2-1.1 0.1-0.3 0.4-0.2 0.9-0.3 3.3-1.8 0.5-0.1 0.8 0 0.8 0.2 0.6 0.4 0.7 2.3-1.2 0.4-3.2-0.9 0.5 1.2-0.4 0.6-0.7 0.6-0.3 1.3-0.7-0.3-0.7-0.1-0.7 0.3-0.6 0.7 0.4 0.5 0.1 0.3 0.3 0.2 0.5 0.2-1.1 1-2.1 0.7-2.1 0.1-0.9-1-1-0.1-1.9 0.3-1 0.9 1.6 1.7-1 0.6-0.6 0.7 0 0.7 1.1 0.4-0.2 1.1-0.4 1-0.6 0.9-0.6 0.6 0.5 0.7 0.8 0.2 0.7-0.5 0.3-1.3 1.5-2.3 0.1-0.4 4.3-0.8 2.3-0.1 1.7 0.9-0.7-0.1-0.6 0.2-0.3 0.5-0.2 0.9-0.2 0.8-0.5-0.1-0.6-0.3-0.5-0.1-0.3-0.1-0.5-0.3-0.4-0.1-0.2 0.8 0.1 0.3 0.3 0.5 0.1 0.4-0.1 0.8-0.3 0.4-0.4 0-0.6-0.3-0.4 2-1 0.6-1 0.3-0.7 1.3 1 0 1.2 0.6 1 0.9 0.4 1.2-0.1 0.9-0.7 2-0.1 1-0.8 1-1.9 1-3.6 1.1 0.2 1 0.4 0.7 0.6 0.4 0.6 0.2 7-4.1 2.4-0.7 0-0.6-0.9-0.3-0.9 0-0.8-0.1-0.5-0.8 2.8-0.3 1.4 0 1 0.6 1.1 0.4 1.6-0.2 1.6-0.5 1-0.6-0.4-0.2-1-1 3.9 0.3 1.9-0.5 1.4-1.6-7.4 0.2-1.2 0.4-0.1 0.3 0 0.3-0.2 0.4-0.6 0.2-0.4 0-0.3-0.1-0.3-0.2-0.4-0.3 0.5-1.2-3.5 1.5-1.8 0-0.6-2.7 0.4-1.4 0.7-0.8 0.8-0.6 0.8-0.8 0.2-0.5-0.2-0.6 0-0.5 0.5-0.2 0.6-0.1 0.3-0.3 0.1-0.5-0.1-0.9 2.3 0.5-0.7 1.4-0.2 1.4 0.4 2.7 1.2-2.1 0.5-1.7 0.9-1 2 0-1.1-1.7-0.3-0.9 1.1-1.8 0-1.3-0.5-0.9-1.1-0.1-0.4 0.9-0.3 1.4-0.4 0.9-0.9-0.4-2-2.3-0.5-1 2.3 0-0.5-1.1-0.1-0.9 0.4-0.3 1 0.5 0.2-1.9 1.1 0.5 2.4 2.5 1.4 1 1.4 0.4 1.2-0.4 1-1.6 1.2 1.2 1.1-0.5 0.6-1.4-0.2-1.6 1 0.3 1 1 0.8 1.3 0.4 1.3 0 1-0.1 0.6-0.3 0.4-1.4 0.2-0.4 0.4 0.1 0.5 0.3 0.8 1.2 1 1.2-0.4 1.2-1.2 1.3-1.8 2.7-2.7 0.9-0.4 0.5 1.2-0.5 1.5-3.4 5.5-0.4 0.8 0 1.7-0.2 0.8-0.2-0.2-1 0.5-0.8 0.7 0.2 0.2-0.3 0.2-0.6 0.4-0.6 0-0.3-0.9 0-3.6-0.2-0.4-0.5 0.6-0.5 1.1-0.2 0.8-1-0.4 0 0.7 0.5 1.2 0.5 0.9 1.4 1.5 0.5 0.8 0.4 1.3-0.3 0.2-0.9 0.3-0.2 0.1 0-0.2-1.3 0.8-0.6 0.6-0.3 0.6-0.5 0.4-0.9 0.2-3.5 0-1.7 0.6-1.1 1.2-0.8-0.5-0.8-0.2-0.7 0.4-0.5 0.9-1-0.4-1.2 0.3-1.2 0.8-0.9 0.9-0.2 1 1.5-0.1 1.9-0.5 0.7-0.4 1.4 0.4 1-0.4 0.9-0.8 1.2-0.8 0.8 0 0.7 0.2 0.7 0.1 1.3-0.9 1.3-0.3 0.7-0.3 0.7 0.9 0.9 0.8 0.9 0.6 0.8 0.2 0.9-0.2 0.9-0.9 0.7-0.2 1.8-0.2 1.4-0.7 2.7-2.1-0.8 2.2-1.1 2.1-0.5 0.6-1.3 1.2-0.6 0.9-0.3 0.8-0.3 0.9-0.4 0.7-2.1 0.5-1.6 1.3-0.9 0.3 0.3-0.9 1.1-1.9 0.1-0.5-0.6-0.3-1.4 1.4-0.9-0.2 0.5-1.3-1.9 1.4-1.3 2.1-1.1 2.6-1.2 2.3-1.6 2.2-0.3 1 0.1 1.7 0.7 2.7 0.1 1.3-0.4 1.4 1.2 0.3 0.8 1.1 0.3 1.2-0.2 0.5 0.2 0.3 0.8 0.5 0.7-0.2 0.3-1.8-0.3-0.4-0.6-1.8-0.2-1.4 0.9 0.8 3.7 6.3 0.1 1.3 0.3 1.1 0.3 0.9 0.4 1.6 0 1 1.4 4.8 0.4 0.6 0.6 1.6 1.5 0.8 1.6 0.2 1.3-0.4-0.4 2.1-4.7 9.1-1.2 1.7-7.6 8.3-5.2 5.5-1.9 3.2-0.9 2-0.4 1.8 0.1 2.7-0.2 1.7-0.6 0.8-0.4 0.9-0.5 1.1-0.1 0.4-1.3 1.7-1.2 2.4-1.3 1.2-3 2-1.4 1.3-2.1 3.4-0.4 0.3-0.4 0.1-1 0-0.6 1.5-0.3 0.6-0.7 0.7-0.7 0.5-0.5 0.7-0.1 1.4 0.2 0.9 1.1 1.4 0.5 0.8-0.4 0.7-0.5 0.6-1.4-1.8-0.7-0.5-1.1-0.2-0.8 0.3-1.4 1.2-0.7 0.3-0.8 0.7-3.5 4.3-1.3 3.4-1.1 3.9-1.5 3.3-2.9 1.6 0 0.6 0.4 0.1 0.3 0.1 0.3 0.2 0.4 0.2-5.2 11.2-0.7 3.1-1 2-1.3 1.6-2 1-0.1 1 0.3 1.7-0.1 1 0.1 0.5 0 0.6-0.5 1.1-0.6 0.7-0.6 0.3-0.4 0.5-0.2 1.3-0.2 0.6-0.7 0.6-2.8 1.8-0.8 0.3-1.8 0.3-2.8 1.4-0.4 0.9-0.2 1-0.3 0.8-0.5 0.6-3.2 2.5-9 2.2-2.2 1.1-1.7 2.2-5.1 3.8-1 1.7-1.5 3.8-1.5 2.5-0.4 0.7 0.3 1.3z m159.9-565l1.5-0.8 0.3 0.2 0.7 0.9 0.6 1.1-0.5 0.4-1 0.3-0.7 0.7-0.1 0.8 0.5 1.7 0.1 0.8-0.2 0.6-0.3 0.2-0.8-0.1-0.5 0-1.4 0.5-1.3 0.2-1.5-0.2-2.7-1.1 0.5-0.6-1.4-1.4-0.7-0.1-0.8 0.7-0.7 0.3-0.2-1 0.1-1.4 0.6-1 0.5 0 3.3 0 0.7 0.4 0.6 0.8 0.7 0.5 1.2-0.9 2.9-2.5z m44.9-9.6l-0.4 0.2-0.4 0.1-0.5 0-0.4 0-0.3 0-0.5-0.2-0.8-0.4-0.2-0.2 0.1-0.3 0.2-0.4 0.1-0.2 0-0.3 0-0.3-0.1-0.3-0.4-0.3-0.6-0.1-0.5-0.4-0.3-0.9 1.8-0.5 0.4 0.6 0.7 2.2 0.8 0.1 0.5 0.3 0.5 0.5 0.3 0.8z m-65.7-19.2l0.8-0.5 1.1 0.4 0.9 0.9 0.3 1.2 0.5 1.9-0.1 0.8-1.1 0.4-2.3-0.1-0.7-0.3 1-0.7 0-1-0.6-2 0.2-1z m18.6-17.7l0.2 0.6 0.6 0.6 0.5 0.9 0 1-0.6 0.7-1 0.4-1.1 0.1-0.9 0-1.3-1.8 1-1.6 1.7-0.9 0.9 0z m26.7 8.8l1.2 1.8 0.6 0.4-1.3 2.8-0.6 0.6-1 0.1-0.5-0.6-0.2-1 0-1.1-0.4-0.8-0.9 0.2-1 0.6-0.7 0-0.3-0.8-0.2-2.1-0.2-0.7-0.5-0.4-0.6 0-1.6 0.4 0.3-0.7-0.1-0.5-0.2-0.5-0.5-0.6-1.5 0.5-1.9-0.8-1.5-1.7-0.4-1.9 1.7 2.1 0.5 0.2 0.6-0.7 0-1-0.2-1.1 0.3-0.9 0.5-1.4-0.9-0.7-1.3-0.7-0.8-1.4 2 0 0.9-0.3 0.7-0.8-1.3-1.4-0.3-1.6 0.8-1.3 1.7-0.2 0.7 0.2 0.5 0.5 0.5 0.8 0.1 1 0.3 0.5 2 1.5-1.3 0.6 0.1 1 1 0.9 1.7 1.1 1.7 0.7 0.6 0.2 0.6 0.3-0.3 0.7-0.6 0.8-0.3 0.7-0.3 1.2-0.3 0.9-0.1 1 0.9 1.4 0.3 0.3 0.3 0.3 0.4 0.1 0.4 0.1 0.2 0.1 0 0.4-0.1 0.3 0.1 0.4z m-224.3-173l0.3 0 0.5 0 0 0.3-0.2 0.3-0.6 0 0 0.3 0.2 0.5 0 0.2 0.2 0.2-0.2 0-0.3 0.1-0.4 0.1-0.4-0.3-0.3-0.4-0.4-0.4-0.3-0.3-0.2-0.5 0.2-0.1 0.2 0 0.4 0.2 0.8 0.1 0.4-0.2 0.1-0.1z m317.8 451.8l0.5 1.4 0.4 0 0.4 0.5 1.1 0.6 1.7 1.3 0.5 0.4 0.8 0.6 1.2 0 2.2-0.3 2.1 0.6-0.2 1.2-1.2 1.7-0.7 2.1-0.3 0.6-0.7 0.7-0.8 0.5-1.5 0.6-0.5 1-1.5 5.7 0 0.3 0 0.4 0.1 0.5-0.1 0.6-0.3 0.2-1 0.4-0.4 0.3-0.9 1.7-2.2 7.5-1.4 3.5-0.9 1.5-0.3 0.8 0 1.1 0.1 2.2-0.1 0.6-0.1 0.4-0.8 1.3-0.2 0.4-1.1 3-1.6 3.2-2.7 3.9-2.8 2.7-0.6 0.2-0.6-0.3-0.6-0.7-0.6-0.4-0.7 0.6-1.7 2.4-0.6 1.4-0.2 1.7 0.4-0.7 0.6-0.6 0.6-0.4 0.7-0.1-4.3 8.7-0.7 6.2-1.1 2-1.6 0.1-1.7-0.4-1.3 0.4-3.8 6.3-4 4-0.5 1.1-0.1 0.9-0.3 1-0.4 0.9-1.3 2.5-0.4 0.3-1.1 0.2-0.5 0.3-0.4 0.8-2.6 6.6-1.5 2.5-2.3 5.8-1.1 4.1-1 1.7-3.2 1.4-1.4 1.6-1.2 2-0.7 1.8-2.1 8-1.4 3.3-6.7 9.4-10.1 8.4-2.5 2.6-3.3 2.4-3.8 2-14.6 11.5-4.5 1.8-1.1 0.8-2.2 2.5-1.1 0.5-5 0.4-1.1-0.5-0.6-2.8-1-0.9 0.3-1.3-0.3-1-0.6-0.9-0.4-1.1-0.1-1.2 1.1-6.6-0.3-0.9-0.7-0.6-7.9-3.1-1.8-0.2-1.7 0.4-1.5 1.1-3.3 3.5-0.6 0.5-0.7 0.2-1.1-0.3-1.4-1.1-0.9-0.9-0.2-0.7 0.9-1.7-0.1-1.5-0.5-1.6 0-2.1 0.5-1.9 1.4-3.4 0.3-2.3-0.7-1.9-1.8-0.6-1.9 0.4-1.4 0.6-1 0.9-0.8 0.8-0.6 1.1-0.4 1.4 3.1 0.8 1 0.9-0.4 2-0.5 0.7-0.6 0.6-0.7 0.1-0.7-0.5-0.7-0.3-0.8 0.6-0.8 0.8-0.9 0.4-3-0.6-3.2-1.7-2.5-2.5-0.6-3.1 0.8-1.7 1.2-0.7 3-0.6 1.1-0.9 2.5-3.2 1.7-1.5 1.6-3.8 1-0.8 1.5-0.7 0.8-1 0.7 0 0.9 2.3 0.8-0.8 0.4-0.8-0.1-0.9-0.2-1.2-0.4-0.2-0.8-1.1-0.5-1.1 0.5-0.6 0.8-0.3 1.2-1.6 0.7-0.4 0.8-0.2 0.8-0.6 0.8-0.8 0.6-0.8 0.5-1.1 0.2-0.9 0.2-2.2 1.4-4 0.6-1.3 3.9-4.3 3.7-6.2 3.1-7 1.8-5.9 0.7-1.5 0.6-1.8 0.2-4.9 0.4-2 0-0.4-0.1-0.6 0-0.5 0.3-0.2 0.4 0 0.7-0.1 0.4-0.3-0.4-1.4-0.2-1.3-0.1-1.3 0.1-0.7 0.6-1.5 0.8-5 0.2-3.5-0.1-0.9-0.3-0.7-1.1-2-0.8-5.7-1.3-4.7-0.9-2.3-1-1.9-5-5.3-1.4-2.4-6-6.9-4.6-2.9-3.7-1.7-1.7-0.3-2.9 0-2.5 0-5.3-2-4-0.4-1.7-0.4-1.6-1.1-7-6.6-1.3-1.6-3.8-6.1-2.7-2.9-3.4-1.9-3.5-1.1-11.3-1.8-3.8-1.3-9-6.8-2.4-2.6-2-3.4-1.2-4-0.4-3.9 0.3-3.9 0.9-4.1 1.9-3.8 3-2.4 6.8-3.1 16.9-10.6 1.5-0.4 8.8 0.6 3.2-1.1 2.9-2.2 7.9-8.3 1-1.8 0.6-3.1 0.6-2 0.1-1.1 0-2.6 0.3-0.6 0.1-0.3 1-0.3-0.4-1.5 0.2-1.2 0.4-1.3 0.2-1.5 0.2-14.6 0.6-3.1 2.3-5.3 0.8-3 0.5-3.3 0.4-4.9 0.6-3 0.1-1.8-0.3-1.5-0.6-1.5-0.3-1.5 0.3-1.2 1 0.6 1.3 0.1 1.2-0.3 1-0.4 0.1 0.9 0.4 0.8 0.4 0.7 0.4 0.5 0.5 0 0-1.2 1 0.7 0.8 1.1 0.9 0.6 1.4-0.7-0.5-0.3-1.4-1.4 1.8-0.7 2 0.3 1.9-0.2 1.2-1.7-1.3 0-0.5 0.1-0.5 0.5-0.5-0.6 0.2-1.7-1.3-1.2-1.9-0.6-1.3 0.3-0.5 1-0.2 0.8-0.5 0.6-1 0.2-0.7-0.5-0.1-1.2 0.3-1.4 0.2-0.9 0.6-0.9 0.6-0.2 0.7-0.1 0.8-0.4 2.1-2.4 1.1-0.8 0.1-1.6-0.8-1.4-1.5-0.2-1.1 1.5-0.6 1.9-0.8 1.1-1.8-1.3-0.3-1.6 0.5-7.9 1.8-4 3.1-1.1 3.8-0.1 3.5-0.5-0.2-0.8-0.4-0.5-0.6-0.3-0.6-0.2 0.9-0.7 0.7-0.9 0.2-1.1-0.4-1.3-2.8 1.7-0.3 0.4-0.2 0.9-0.4 0.4-0.2-0.1-0.4-0.2-0.5-0.2-2 0.9-1.1-1.3-4.3-16.4-3.8-9.2-0.7-3.8 0-0.9 0.6-1 0.8-0.5 1.9-0.5 0.7-0.5 0.8-1.5 0.5-1.9 0.9-1.6 1.6-0.7 0.1-0.3-0.3-0.6-0.7-0.4-0.9 0.5-0.6 0.5-1.3 0.9-0.6 0.5-1.8 3.4-1 0.5-1.4-1.3-1-1.5-2.7-6.4-0.7-2.6-1.5-3-0.3-0.7-0.4-1.8-2.8-5.3-0.4-2.3 1.1-0.1 1.8 0.4 2.6-0.8 1 0.3 0.7 0.7-0.2 0.9-0.6 0.9-0.1 0.5 3.3 6.6 0.3 2.6 0.9 2.1 1.2 0.9 0.7-1.9-0.8-2.2-0.2-1.3 0.8-0.5 1.9 0.3 0.9-0.1 1-0.7-1.4 0-3.3-0.6-1.2-0.6 1-0.5 3.6-3.1 0.5 0.2-0.1 1.8 2.7-3.3 1.5-1.2 1.7-0.2 2.5 2.9 0.9 0.5 0.9-0.4 0.2-0.9-0.4-1.1-0.5-1 0.1-0.9-3.4-1.4-1.2-1.1-1.1 0.4-0.6-1-0.4-1.6-0.6-1.2-1.7 2-1-0.8-0.1-1.9 0.7-1 0.8-0.2 0.8-0.6 0.6-0.8 0.3-1-4.3-0.7-4.4 0.2-2.2 0.7-1.8 1.3-0.5 1-0.4 2-0.4 0.9-0.6 0.9-0.6 0-1.5-1.4-1 1.4-1.4 1.3-1.5 0.5-1.4-0.7-0.7-1.4-2.7-9.5-1.4-7.7-1.3-3.7-3.4-6.3-9.1-11.6-2-3.7-0.4-3.8 0.2-1 0.3-0.7 0.5-0.5 0.8-0.1-0.7 2.3-0.1 1.1 0.4 1.2 1-2.2 0.7-0.9 0.9-0.3 1 0.6 1 2.7 1.3 1.2 1.5 2.7 0.9 0.7 1.1 0.3 0.7 0.7-0.1 1-1 0.8 2.7 1 0.7 0.1 0 0.2-0.6 0.4-1 0.4-0.9 0.1 0.6 0.5 0.3 0.7-0.1 0.8-0.3 0.8 0.7 0.1 0.7 0.2 1.3 0.9 0-0.6 0-1.1 0-0.6 0.7 1.2 0.6 1.8 0.7 1 0.7-1.7 0.7 0.1 0.2-0.9 0.2-1.4 0.3-1.2 0.4-0.6 1-0.9 0.4-0.8-1 0.4-0.4 0.2-0.6-1.6 0.7-3.7-0.5-0.9-0.6 1.2-0.3-0.6 0-4.3 0-0.3 0.2-0.4 1.1-1.2-0.5-0.9-0.8-0.9-0.6-1 0.3-0.9 1.5-1.3-0.1-0.5-2.1-1.3-0.5 0-1 1.5-0.9 0.7-0.6 0.4-3.8 0.3-2.1-0.5-1.5-1.4-0.4-2.6 0.9 0.5 0.5-2 0.7-0.2 0.9 0.7 1 0.4 2.9-0.2 1.3-0.4 1.1-0.8 1-1.1 0.8-0.6 2-0.8 1.8-1.7 0.7-0.3 0.5 0 0.4-0.3 0.3-1.1-0.4-0.4-0.2 0-0.1-0.2-0.2-0.5-0.7 0.7-0.9 0.5-0.9 0.3-0.3 0-0.7 0.1-0.6 0.3-1.6 1.5-0.7 0.5-0.5-1-1.1 0.8-1.3 1.2-1.2 0.7-1.7-0.3-0.9-0.4-0.6-0.4-0.3-1.5 0.7-0.3 1.9 0.6 1.1 1 0.5 0.1 0.3-2.1 1.1-2.6 1.5-2 0.4-0.9 0.1-0.6 0.1-0.7 0.3-1.2 1.1 0.5 0.8-0.1 0.2-0.7-0.7-1.3-0.7-0.5-2.5-0.7 0.3 2.5-0.9 2.8-1.6 2.2-1.9 1 1.1-1.4 0.3-0.3-0.7-0.3-0.8 0.2-0.5-0.1-0.3-0.7-0.1-1.3-0.5-0.2-0.5 0.2-0.6-0.1-0.7-0.3-0.5 0.1-0.2-0.3 0-1.2 0.1-0.9 0.2-0.8 0.6-1.6-1.1 0.1-0.7 0.5-1.4 1.6 0.3-2.3-1 0-2.9 2.3 0.7 0.7 0 1.8 0.9 0.3 1.2 0 0.8 0.2 0.7 0.5 0.7 1-0.4 1.2 0 0.7 0.6 0.4 0.5-0.2 0.3-0.4 0.5-0.8 0.6 0 0.8 0.7 1.1 1.8-2.3 0.6-0.4 0.2-0.2 0.8-0.4 0.4-0.5 0.2-0.7 0-0.5-0.3-0.9-1.1-0.6-0.3-0.7-0.1-0.5-0.3-1.5-2.3-0.6-1.2-0.8-1.2-1.1-1-1.2-0.3-3.2-0.1-0.6-0.5-0.4-0.8-1-1-1.1-0.9-0.9-0.4-1.1-0.6-0.4-1.5-0.1-3.2-0.4-1.2-1.9-2-0.7-2.5-0.9-0.9-2-1.6 2.4-2.2 0.6-1.3-0.3-2-0.3-0.6-0.7-0.7-0.8-0.5-0.4 0.1-0.2 1 0.5 0.8 0.7 0.6 0.3 0.4-0.4 1.8-2.5 1.3-0.3 1.3 3.4 4.8 0.5 0.9 1.4 0.8 0.5 1.9 0.3 2.2 0.5 1.5 0.5 0.7 0.8 1.8 0.5 0.9 0.7 0.5 0.8 0.3 0.8 0.6 0.5 1.5 0.6 0.6 0.7 0.5 0.5 0.5 3.6 5.6 0.9 0.5 1-0.2 0.9 0.1 0.6 1-1.3 0.6 0.6 1 1.3 1.4 0.8 1.8-0.6 1.7-1.3 1.1-3.1 1.4-3.2 0.1-1.5-2.9-2.1-7.9-8.6-11.8-2.4-4.8-14.9-20.2-14.9-20.1-0.4-1.5 0.4-1.3 2.2-3 0.5-1.3 0.2-1.8 0.4-1.9 0.9-1.1 1.3 0.7 0.3-0.8 0.1-0.4 0.7 0.7 0.6 0.9 0.7 0.8 1 0.4 0.1-0.6-0.1-2.8 0.2-1.1 1.8 2.9 0.4-1.4 0-1.6 0.3-1.5 1.1-1.2 0.7 0 0.3 0.4 0.4 0.2 0.9-0.6 0.2-0.5 0.5-1.7 1-1.9-2.4 0.8-0.7-0.2 0-1-0.1-0.6-0.3-0.3-0.7-0.1-0.3 0.4 0 3-0.7-1.3-1.1-3.8-1.1 1.3 0.2 1.4 0.9 1.6 0.5 1.3-0.4 1.4-1.1 0.7-1.3 0-1.6-1.1-0.7-0.1-0.4 0.3 0.6 1.6-0.4 0.4-0.7 0.2-0.6 0.2-0.6 0.4-0.4-0.3-0.8-1.2-0.5 0-0.7 0.4-1.3 1 0.5 1.1-0.4 0.6-0.8 0.4-0.6 0.7-0.1 0.4 0.2 0.4 0.2 0.3 0.1 0-0.2 6-0.2 0.7-0.6 0.1-0.6-0.5-5.7-8-0.7-2.2 0.3-1.3 2.3-2.6-0.5 0-0.9-0.1-0.5 0.1 1.4-1.6 0.5-0.8 0.4-0.9-2 0.3-1.2 1.3-0.8 1.8-0.6 2.1-0.7-0.6-2-2.4-0.4-0.8 0.5-0.7 2.4-1.8 0.7-0.9-0.9-0.3-1.9 1.1-1.3 0.3-1.1-0.4-0.9-0.8-1.6-2.1-2.6-2.8-0.5-1 0.2-1.6 0.9-0.5 1.3 0.3 1.2 0.6 2.1-2.9 1.3-3.8 0.2-4.2-0.9-4-2.1-5.1-0.8-1.3-4-4.1-1.2-1.7-2.1-5.3-0.8-0.8-1.2-0.6-13.5-17.9-2.7-2.3-5.6-3.4 0.7-0.6 0.4-0.6 0.7-1.5-0.1-0.7-0.1-1.2 0.3-0.8 1.1 0.7 1.5 0.8 3.9 0.2 1.6 1 0.9-0.9 2-0.5 2-1.3 7.5 0.7 1.2-0.3 0.7-0.6 0.7-0.8 0.8-0.2 1 1.1-1.9 1.3-0.5 1.6 0.1 4.3-0.2 1-0.2 0.7-0.6 0.4-1 0.1-0.4-0.5-0.2-0.9-0.5-1-0.9-0.4 0.1-0.4 0.2-0.9 0.1-0.4-1.3-0.5-0.5 0.2-0.5 2-0.2 1.8-0.5 0.5-1.1-0.7-0.1 0.8-0.2 0.6-0.4 0.5-0.7 0.4 0.7 0.7 2.1 1.5 0.2-0.9 0.3-0.7 0.5-0.5 0.8-0.1-0.4 1.1-0.2 0.6-0.3 0.5 0.7 0.5 0.6 0.1 0.6-0.4 0.4-0.8 0.3 0.9 0.1 1.1 0 4.6 0.3 0.6 0.6-0.6 0.8-1.9 0.1-2.3-0.4-2.3-1-1.7 1.7 0.8 1 4 0.7 4.7 0.7 3.1 2.2 2.5 2.7 2.4 2.2 2.7 0.6 3.4-3.2-3.8-1.4-1.2 0.3 2.9 2.8 2.8 8.8 5.2-0.2 1-1.4 1.7-0.4 0.7-0.3 0.8 0 3.3 0.2 0.5 0.4-0.1 0.7 0.1 2.2 0.6 0.6 0 0.5-0.8 0.2-0.9 0.3-0.8 1-0.4 0.8-1-0.1-2.3-0.9-3.9 0.3-1.7 1.3-0.6 1.6-0.3 1.5-0.9 0.5-1.1-0.1-0.9-0.4-0.8 0-0.5 0.8-0.8 0.5 0 0.4 0.6 0.4 1 0 0.7-0.1 0.7-0.4 1.3 2-1 0.8-0.1-0.4 0.8 0.2 0.7 1 1.3-2.7 1.1-2.7 0-0.7 0.3-0.4 1.3 0.3 1.5 0.7 1.4 0.6 1.1 0.9 1.2 1.1 1 1.3 0.8 1.4 0.3 3.2-0.4 1.3 0.4 1.2 1.7 0.8-1.4 0.1-0.3-0.7-1-0.8-0.7-0.7-1-0.1-1.2 0.7-1.4 0.8-0.1 0.9 0.8 0.8 1.3 0.8-0.9 0.9-0.1 0.7 0.4 0.7 1.8 1 0.4 2 0 0.2-0.2 0.2-0.4 0.2-0.3 0.5-0.2 0.7 0.2 0.1 0.4 0 0.6 0.1 0.4 0.4 0.5 0.2 0.6 0.2 0.4 0.6 0.2 0.5 0 0.4 0.2 0.9 0.4-0.8 0.4-0.4 0.7-0.3 0.9-0.3 0.7-1.5 1.1-0.7 0.7 0.2 0.7 2.2 2 1.4-0.1 0.3-0.3-0.1-0.6 0-0.7 1.4-2.8 0-0.5-0.1-1.2 0.1-0.4 0.4-0.5 1.2-0.1 1.1-0.7 1 0 2 0.1-0.2 0.4 0.5 1 1.2 1.4 2.6 2 1.1 1.3 0.4 2 0.9 1.4 2.1 0.4 3.8-0.5 1.6 0.5 1.6 1.1 1.3 1.6 0.5 2.1-2.7 0.8-0.8-0.3-0.2-0.7-0.1-0.9-0.3-0.8-0.3 0.1-0.5 0.4-0.7 0-0.8-1.1-1.6 0.9-0.7 0.5 0.6 0.5 1.3 2-2.2 0.2-0.2 1.2 1 0.8 1.4-0.6 0.6 0.5 0.8 0.2 0.7-0.2 0.6-0.5 0.9 1.3-0.2 1.1-0.5 1-0.2 1 0.5 1.1 2.5 2.6 0.3 0.7 0.2 0.9 0.2 2.2 0.2 0.3 0.4-0.9 0.5-1.3 0.2-1.1 1.3 0.7 0.7 0.3 0.7 0.1-0.1-0.4-0.2-0.9-0.1-0.3 0.9-0.1 0.6 0.4 0.4 0.5 0.5 0.3 0.6-0.4 0.2-0.8-0.2-0.8-0.6-0.3-1.4-0.2-1.9-0.5-1.7-0.8-0.6-1.3 0.5 0.6 0.9-0.9 1.6-0.1 3.3 0.4-0.3-0.8-0.2-0.3 0.7 0 0.9 0.1 0.7 0.2 0 0.3 0.7-0.4 0.1-0.3 0-0.4 0.4-0.8 1.8-2 2-1.6 0.5 2-0.6 1.6-0.8 1.6-0.5 1.9 0.5 2 1.2 0.8 1.4 0.1 1.5 0 0 0.5-0.6 1.1 2 2.5-1 0.8-0.4-0.2-1.8-2-2.1-1.6-0.7-0.6 1.1 1.8 2.5 5.4 1.4 1.2 1.4 0.1 1.4 0.4-0.1-0.2 0.1-0.2 0.1-0.2 0.3 0.1 0.3 0.2 0.2 0.7 0.2 0.2 0.5 0.6 1.6 2.8 0.4 1-2.6 0.4 0.3 1 3.4 2.8 3.2 3.4 0.6 1.9-0.9 2.8-1-0.6-2.9-0.5-1.2-0.1-0.7 0.5 1.1 0.9 2.5 1.4-0.4 0.1-0.9 0.5 1.7 0.4 0.6 0.3 0.3 0.7-0.2 0.8-0.6 0.6-0.7 0.4-0.7 0.2 3.8 2.4 0.7 0.8 0.1 1.1-0.5 1.9 0.2 0.7 1.6 3.1-1.8 0.5-1.4-0.9-1.3-1.3-1.4-1 0.4-1.6-1.9-0.5 0.1-1.3-1 0-1.7 0.8-0.9 0.2-0.5-0.1-0.7-0.8-0.4-0.1-0.4 0.2-0.4 1.2-0.3 0.2-1.1 0.1-0.1-0.2 0.2-0.7 0-1.5-0.2-1.1-0.3-1-0.5-0.9-0.7-0.8-0.4 1.8 0.4 4.4-0.3 1.3-0.3 0.9-0.1 1 0.2 1 0.5 0.7 1 0.1 0.5-0.6 0.5-1.1 0.5-0.9 1.2-0.2 4.3 0.6 1.5 0.5 1.1 1.4-0.3 1.6-1.2 1.6-1.4 1.5 1.1 1.2 0.2 2-0.1 2 0.1 1.5 0.8 1.1 3 2.2 1.2 0.6 0.8 0.2 1.7 0 0.7 0.4 0.7 1-0.1 0.8-0.4 0.7-0.2 0.9 0.4 1.9 0.7 1 0.9 0.8 1.2 1.3 3.7 5.8 2.1 2.4 2.7 1.9 1.8 0.7 0 0.5-0.4 1.1 0 0.2 0.3 0.1 0.1 0.2-0.2 0.3-0.2 0.1-0.2 0-0.2-0.2 0-0.2-0.4 0.3-0.2-0.1-0.2 0.1-0.2 0.9 0.6 1.5 1.4 0.6 1.9 0.2 1.6 0.5-2 0.4-5.5-0.3-1.1 0.2 0.2 1.1 0.9 3.4 1 2.2 0.2 1.4-0.2 1.5-0.3 1.3-1.3-3.9-1-1.6-1.8-0.7 1.2 3.6-0.1 1.4-1.5 0.1 0 0.6 0.6 0.2 0.6 0.3 0.5 0.5 0.5 0.6-0.4 0.9-1.4 0.8-0.4 0.6 0 1.1 0.7 1.4 0.2 1.1-0.1 1.7 0.4 0.3 0.8 0.9 0.7 0.4 0.9 0.3 1.8 0.1 2.8-1.1 0.8 0 0.7 0.6-0.3 0.4-3 1.8-1.7 0.6-1-0.1-2.8-1.1 1.3 1.5 1.1 2 3.9 12.4-1.4-0.4-0.9-0.8-0.9-0.3-1.8 0.9-0.5-0.4-0.3-0.5 0.1-0.6 0.3-0.7-1.3-0.3-0.9-2.3-1 0-2.3 1.2-1.1 0.7-1.1 1.2 0 0.6 0.6 0.1 2.3-0.4 1.2 0.3-0.6 0.6-1 0.6-0.6 0.7 0.3 0.6 1.1 0.7 0.3 0.3 0 0.5 0 3.5 0.3 1.1 0.8 0.5 0.6-0.4 0.1-1.1-0.1-1.1 0.1-0.9 0.5 0.7 0.5-1 0.6-0.8 0.8-0.6 0.8-0.5 1-0.1 3.1 0.7 4.1 0 1.5 0.9-0.2 2.5-0.7 1-0.6 0.5-0.4 0.8 0.3 1.5 0.4 1.1 0.3 0.6 0.5-0.1 0.6-0.9 1.8-9.1 0.5 0 1.4 3.9 0.5 1.9-0.1 2.2 1.5-0.4 1.7-0.1 0.8-0.6-1-2-0.3-1.4 1.6-0.4 2.1 0.3 1.3 0.5 0.8 1.9-0.7 3.8 0.8 1.4 1.1 0.3 0.8-0.3 0.7-0.5 1.1-0.4 1.6-1.1 0.4 0.2 0.3 0.3 0.4 0.1 2.1-1 0.6-0.2 0.7 0.3 1.4 1.2 0.9 0.3 0.5 0.3 2.3 2.9 0.5 0.9 0.3 0.9 0.2 1.2 0 2-0.9 5.7 0.3 1.9 0.8 1.8 1 1.6 1 1.2 2.4 1.4 3 0.1 3-0.8 2.5-1.2 0.6-0.6 0.2-0.5 0.3-0.4 1-0.2 0.5 0.4 0.2 0.8 0 1.9 0.3 1.6 0.9 1 1.2 0.2 1.2-0.8-1.1-0.3-0.7-0.8-0.4-1.3-0.2-2.6-0.6-2.2-0.2-1.1-1.1-2.5-0.2-1.2 0-4.3-0.3-1.1-0.3-0.6-1.5-5.1-0.5-1-0.6-1-0.9-0.8-1.6-1.2-0.7-0.7-0.4-0.9-0.2-0.9-0.4-0.8-0.8-0.8 1.4-0.5 1.6 0.3 1.4-0.1 1-1.4-2.2 0.1-1-0.2-0.9-0.5 0.8-0.3 0.8-0.2 0.7-0.3 0.5-0.9-0.6 0-0.5-0.2-0.3-0.2-0.5-0.2 3.4-0.9 1.1-1-0.4-2-1 0.7-0.3 0.4-0.5-0.8-0.3-0.8-0.1-0.9 0.4-0.8-1.4-2.5 0.4-2.2 0.9-2-0.3-1.9-0.6-0.3-0.8-0.1-0.6-0.3-0.3-0.7-0.2-0.2-1.2-1.7-1.2-0.6-2.4-1-1.1-1-0.6-1.1-0.3-1.3-0.2-3.2 0.5-1.2 1.4 0 1.6 0.3 2.2-0.5 0.4 0.5 0.3 0.6 0.4 0.8 0.2 0.6 0.2 0.3 0.3 0.2 0.5 0.3 1.3 1.3 0.7 0.1 1.7-1.9 1.2 1.5 0.8 2.1-0.1 2.1-1.4 1.6 1.3 1.1 1.5 0.1 1.2 0.4 0.5 2.1 0.2 2.1-0.2 1.1-0.7-0.4-0.8-0.7-0.7 0.2-0.2 0.7 0.4 1 0.7 0.3 1.9-0.3 0.8 0.2 0.4 1-0.2 0.8-0.5 0.8-0.2 0.9 0.5 2.4 0.9 0.2 2.7-2.1-1-0.4-0.4-0.1 0.5-0.8 0.8-0.3 0.9 0.2 0.8 0.6 0.8 0.4 1-0.5 1.6-1.4 1.2-0.4 0.9-0.1 0.9 0.4 0.8 1 0.8 0.1 0.9-0.5 0.7-0.1 0.1 1.4-0.4 1.1-0.6 0.3-1.9-0.3-0.3 0.4-1.3 2.4-0.9 0.6-1.7 0.7-0.8 0.7-1 1.4-1 1.7 0.8 0.7-0.1 0.6-0.2 0.6 0.1 0.7 0.8 0.7 0.8 0.5 0.5 0-0.1-0.9 1.1-0.9-0.5-2.6 0.8-1.1 1.5 0.8 2.7-0.6 1.5 1.2 0.2 0.9 0 2.2 0.2 0.9 1.1 1.3 0.3 0.7 0.3 1.1 0.4 3.9-0.3 2.6 0.1 0.5 0.1 0.8-0.4 0.9-0.6 0.9-0.3 0.9 0.4 0.6 0.7-0.5 0.7-0.9 0.5-0.7 1.2 1.6-0.3 2.1-0.9 2.2-1.1 1.8-0.1 0.7 0.6 0.3 0.9 0.2 0.6 0.3 0.2 1-0.1 2.4 0.4 1.1-0.7-0.5-0.5-0.6-0.3-0.8-0.3-0.9-0.5 0 0.3 2 0.4 1.8 0.1 1.5-0.8 0.9 2.2 1.1 0.8 0.8 0.6 1.5 0.7 3.2 0.2 3.4 0.3 1.3 1.2 2.6 0.3 1.2 0.2 0.6 0.9 0.7 0.3 0.7-0.1 1.1-0.3-0.1-0.5-0.5-0.5 0.1-0.6 1.3 0.7 0.5 2.6 0.5 1.1 0.4 1.2 0.8 1.1 0.9 0.9 1 0.7 1.1 1 2.4 0.6 1 1.9 1.8 0.8 1.1 0.2 1.4-2.3-1.8-0.8-0.5-1-0.1-1 0.2-1-0.2-1.1-1 0.7-0.4 2-0.7-2.3-1.7-1.1-1-0.9-1.1-1.3-0.8-1.7-0.1-3.1 0.6 0.4 0.5 0.6 0.9 0.3 0.4-0.2 0.5-0.2 0.5-0.1 0.7 0.1 0.6 0.4 0.6 0.4 0.1 0.4-0.2 0.2 0 0.3 0.3 0.7 0.1 0.3 0.2 0.1 0.5-0.2 0.5-0.2 0.4-0.1 0.3 0.3 1.9 0.1 0.4 0.3 0.4 0.4 0.2 1.1 0 0.5-0.2 0.4-0.4 0.2-0.4 0.3-0.2 1.1 0.6 0.6 1 0.4 1.2 0.6 1.3 1.1-0.8 0.6 0.5 0.6 0.9 0.6 0.5 1-0.4 0.3-0.9 0.5-0.7 1.2 0.2 0.9 0.6 0.4 0.8 0.1 1-0.1 1.4 0.4 0.7 0.8 0 1.1-0.3 0.9-0.1-0.9-4.1-1.4-2.5-0.4-1.1 0.9-0.3 1.3 1.1 2.3 4.2 1.6 1 1.8 0.4 4 2 1.9 0.4 0.8 0.4 1.6 1.5 0.8 0.4 2 0 0.3 0.3 0.3 0.6 0.4 0.2 0.8-0.5 13.2 9.6 2.7 1.3 4.2 0.7 4 1.6 4.5 0.6 3.6 2.3 6.1 0.9 2.5 1.4-3.9 0-0.7 0.2 0.4 0.5 3.1 2.2 0.8 0.4 1 0.2 0.8-0.5 0.2-1-0.3-1.2-0.5-0.8 1.1-0.3 0.7 0.4 0.5 0.6 0.9 0.4 4.3 0 0.2 0.2 0.7 1.3 0.4 0.2 0.3-0.1 0.3-0.3 0.4-0.1 0.2-0.3 0-0.6 0-0.6 0.4-0.3 0.8 0 2-0.5 5.9-0.5 1.6-1 1.2-1 5.1-3.2 2-1.8 0.7-0.9 0.2-0.7 0-2.2 1.1-2 0.2-0.8 0.4-0.5 2.8-1.5 1-1.5 0.8-3.1 0.7-1.4 1-1.2 0.4-0.7 0.2-1 0.5-0.6 6.6-1.9 1.3-0.1 1.2-0.4 0.9-0.9 1.5-2.4 1.1-0.6 2.9-0.3 1.2-0.5 0.9-1 0.2-0.8-0.3-0.9-0.8-1.3 2.6 0.5 16.3 0.8 1.6 0.5 0.8 0.7-0.9 0.9 0 0.6 0.8 0.4 1.2 1.3 0.7 0.6 1.1 0.4 1.1 0.1 2.4 0 0.8 0.3 1.3 1.2 0.8 0.2 2.1 0 0.8 0.1 1 0.5 1 0.8 1.5 1.6 1 1.7-0.1 1.4-0.6 0.7-1.2 2.1-2.5 2.6-1.4 3.9-0.9 2.1-2.4 1.7-0.9 1.8-1.9 5.3-0.7 1.3-1.1 1.4-0.5 0.8-0.2 1 0.5 1.9 1 1.8 0.7 1.8-0.4 2.2-1.1 1.1-1.3 1-0.7 1.3 1.7 3.6-0.2 1.7-0.8 1.6-1 1.5-0.4 1.7 0.9 1.7 1.3 1.5 0.7 1.1-0.2 0.9-0.6 0.9-1.1 1.1-0.3 1.1-0.1 1.9-0.5 1.1 0.9 0.2 0.6 0.6 0.4 0.9 0 1.2-0.5 0.7-2.5 1.4-0.3 0.7 0.1 5.5-0.4 0.6-7.4 8.4-6.8 6-1.1 0.6-2.6-2.4-1.7-0.4-1.7 0.4-1.4 1-0.5 0.3-0.5-0.2-0.2 0.1-0.1 1 0 0.4 0.2 0.9 0.2 0.4 1.2 1.4 0.6 0.9-0.2 1-1.1 2.1-0.5 1.9 0 4.4-0.7 5-0.9 2.5-0.2 3.4-0.5 1.4 0.6 1.6-0.5 1.3-0.9 1.2-0.5 1.7 4.6 0.5 2.2 1.2 0.9 2.1-3.6 3.7-1.6 4.3-0.6 2.8-0.8 0.9-1 0.9-1 1.1-1.8-5.2-0.5-2.8 0-2.5 0.4-1.4 0.5-1.4 0.6-1.2 0.6-1 0-1-0.9-0.6-1.3 0.1-0.8 1.3-0.7-0.4-2-1.4-1-0.4-10.5-0.4-10.7-0.3-0.8-0.4-0.6-0.5-0.6-0.2-1.7 1.5-12.3 6.1-9 4.3-0.8 1.1-0.3 1.9-0.7 1.8-0.9 1.7-1.6 2.2-2.4 2.6-1.5 1.2-0.3 0.3-0.7 2.3-0.8 1.1-0.5 1-0.2 1.1-0.1 1.5 0.3 1.4 0.5 0.8 0.8 0.6 0.7 1 0.5 1.7 0.4 8 0.2 1.7z" id="NZ" name="New Zealand">
  </path>
 </g>
 <g id="points">
  <circle class="-47.36652345617253|167.07146649770925" cx="146.1" cy="1215.6" id="0">
  </circle>
  <circle class="-41.7992510236829|173.1213118658109" cx="546" cy="698.3" id="1">
  </circle>
  <circle class="-34.84016048307086|177.9611881602922" cx="865.9" cy="111.2" id="2">
  </circle>
 </g>
 <g id="label_points">
  <circle class="New Zealand" cx="291.4" cy="1007.3" id="NZ">
  </circle>
 </g>
</svg>